<svg xmlns="http://www.w3.org/2000/svg" viewBox="0 0 477.74 106.47"><defs><style>.cls-1{fill:#201f1d;}.cls-2{fill:#b0232e;}.cls-3{fill:#fff;}.cls-4{fill:#3b5090;}.cls-5{fill:none;stroke:#fff;stroke-width:0.08px;}</style></defs><title>leidalykill</title><g id="Layer_2" data-name="Layer 2"><g id="Layer_1-2" data-name="Layer 1"><polygon class="cls-1" points="25.77 67.22 24.29 74.81 0 74.81 7.43 36.57 16.35 36.57 10.38 67.22 25.77 67.22"/><polygon class="cls-1" points="43 43.98 41.49 51.73 55.98 51.73 54.59 58.92 40.09 58.92 38.45 67.38 56.84 67.38 55.4 74.8 28.09 74.8 35.52 36.57 62.83 36.57 61.39 43.98 43 43.98"/><polygon class="cls-1" points="69.51 74.8 60.59 74.8 68.03 36.57 76.95 36.57 69.51 74.8"/><path class="cls-1" d="M90.48,51.51h6.07L95.09,59H89l-1.67,8.58h3c3.73,0,6.27-.73,9-4.07a18.87,18.87,0,0,0,3.72-8.25,12.85,12.85,0,0,0-1-8.63c-1.54-2.68-3.75-3.07-6.93-3.07H92Zm5.08-14.94c5.52,0,10.18.34,13.6,4.3s4.11,9.18,3,14.71a25.6,25.6,0,0,1-7.66,13.93C99.93,73.68,95,74.8,89.62,74.8H77L80.1,59H76.7l1.47-7.52h3.39l2.91-14.94Z"/><path class="cls-1" d="M134.27,59.93l-1.45-13.45-6.69,13.45ZM145.42,74.8h-9.64L135,66.94H122.6l-3.93,7.86h-7.85l19.69-38.23h10.37Z"/><polygon class="cls-1" points="175.16 67.22 173.69 74.81 149.4 74.81 156.83 36.57 165.74 36.57 159.78 67.22 175.16 67.22"/><polygon class="cls-1" points="193.26 58.69 190.13 74.79 181.22 74.79 184.35 58.69 176.56 36.57 186.93 36.57 191.45 51.11 201.53 36.57 209.55 36.57 193.26 58.69"/><polygon class="cls-1" points="218.6 54.57 234.08 36.57 242.66 36.57 230.81 50.22 237.51 74.8 227.65 74.8 223.28 58.25 216.37 66 214.66 74.8 205.97 74.8 213.4 36.57 222.1 36.57 218.6 54.57"/><polygon class="cls-1" points="250.56 74.8 241.65 74.8 249.08 36.57 258 36.57 250.56 74.8"/><polygon class="cls-1" points="283.75 67.22 282.28 74.81 257.98 74.81 265.42 36.57 274.32 36.57 268.37 67.22 283.75 67.22"/><polygon class="cls-1" points="311.62 67.22 310.15 74.81 285.85 74.81 293.29 36.57 302.2 36.57 296.24 67.22 311.62 67.22"/><path class="cls-1" d="M330,45.72c1.74,0,3-.37,3.4-2.28.41-2.1-1.86-1.94-3.36-1.94h-3.48l-.82,4.22Zm3.75,8.87H330l-2.18-6.52h-2.55L324,54.59H320.8l3-15.48h7.47c4.05,0,5.79,1.09,5.09,4.74-.56,2.83-2.28,4-5,4.22Zm5-7.82c1.23-6.37-2.31-10.9-8.44-10.9a13,13,0,0,0-12.65,10.9c-1.25,6.44,2.18,10.95,8.42,10.95a13.11,13.11,0,0,0,12.67-10.95m-24.86,0C315.4,38.9,323,32.49,331,32.49S344,38.9,342.51,46.77s-9.22,14.35-17.09,14.35-13.07-6.4-11.54-14.35"/><rect class="cls-2" x="379.63" y="15.59" width="75.29" height="75.29" transform="translate(84.57 310.65) rotate(-45)"/><polygon class="cls-3" points="447.63 53.23 417.27 83.58 386.93 53.23 417.27 22.89 447.63 53.23"/><rect class="cls-4" x="356.81" y="42.94" width="120.92" height="20.6"/><path class="cls-3" d="M364.94,53.15c0,2.29.79,3.34,2.62,3.34s2.64-1.05,2.64-3.25S369.37,50,367.56,50s-2.62,1.06-2.62,3.19m2.62-4.8c3.32,0,4.87,1.57,4.87,4.89s-1.55,4.88-4.87,4.88-4.87-1.58-4.87-5c0-3.22,1.6-4.79,4.87-4.79"/><polygon class="cls-3" points="381.48 48.54 378.49 55.53 375.53 48.54 373.21 48.54 377.46 57.93 379.58 57.93 383.67 48.54 381.48 48.54"/><path class="cls-3" d="M386.71,52.36h5.69V54h-5.7c0,1.68.71,2.3,2.33,2.3h3.37v1.64h-3.47a4.45,4.45,0,0,1-3-.82,4.32,4.32,0,0,1-1.5-3.7c0-3.32,1.45-4.86,4.59-4.86h3.42v1.63H389a2.05,2.05,0,0,0-2.32,2.19"/><path class="cls-3" d="M397.06,50.21v2.37h2.52c1.23,0,1.82-.23,1.82-1.19s-.59-1.18-1.82-1.18Zm3-1.67c2.31,0,3.42.85,3.42,2.83a2.43,2.43,0,0,1-2,2.64l2.43,3.91h-2.31l-2.15-3.68h-2.42v3.68H395V48.54Z"/><path class="cls-3" d="M409.58,52.36h4.85v5.56H410a4.56,4.56,0,0,1-3.11-.82,4.36,4.36,0,0,1-1.48-3.7c0-3.32,1.46-4.86,4.59-4.86h4.42v1.62H410c-1.65,0-2.32,1-2.32,3.15,0,2,.66,2.92,2.32,2.92h2.31V54h-2.74Z"/><path class="cls-3" d="M419,50.21v2.37h2.52c1.23,0,1.82-.23,1.82-1.19s-.59-1.18-1.82-1.18Zm3-1.67c2.31,0,3.42.85,3.42,2.83a2.43,2.43,0,0,1-2,2.64l2.44,3.91h-2.31l-2.15-3.68H419v3.68h-2.05V48.54Z"/><path class="cls-3" d="M429.57,53.15c0,2.29.79,3.34,2.63,3.34s2.63-1.05,2.63-3.25S434,50,432.2,50s-2.63,1.06-2.63,3.19m2.63-4.8c3.31,0,4.86,1.57,4.86,4.89s-1.55,4.88-4.86,4.88-4.87-1.58-4.87-5c0-3.22,1.58-4.79,4.87-4.79"/><path class="cls-3" d="M441.29,54.16c0,1.66.51,2.35,2.21,2.35s2.18-.69,2.18-2.35V48.54h2.05v5.67a3.87,3.87,0,0,1-.56,2.52,5.87,5.87,0,0,1-7.37,0,3.85,3.85,0,0,1-.55-2.52V48.54h2Z"/><polygon class="cls-3" points="457.04 48.54 457.13 55.28 453.13 48.54 450.53 48.54 450.53 57.93 452.65 57.93 452.55 50.83 456.75 57.93 459.14 57.93 459.14 48.54 457.04 48.54"/><path class="cls-3" d="M464,50.18V56.3h2.39c1.82,0,2.39-.75,2.39-3.06s-.57-3.06-2.39-3.06Zm2.43-1.64c3.14,0,4.59,1.55,4.59,4.86a4.34,4.34,0,0,1-1.49,3.7,4.48,4.48,0,0,1-3.05.82h-4.52V48.54Z"/><rect class="cls-5" x="359.69" y="45.76" width="115.16" height="14.94"/></g></g></svg>